<svg width="256" height="256" viewBox="0 0 256 256" fill="none" xmlns="http://www.w3.org/2000/svg">
  <defs>
    <linearGradient id="bg" x1="28" y1="24" x2="228" y2="232" gradientUnits="userSpaceOnUse">
      <stop stop-color="#111827"/>
      <stop offset="1" stop-color="#1F2937"/>
    </linearGradient>
    <linearGradient id="piece" x1="86" y1="56" x2="170" y2="206" gradientUnits="userSpaceOnUse">
      <stop stop-color="#F8FAFC"/>
      <stop offset="1" stop-color="#D1D5DB"/>
    </linearGradient>
  </defs>

  <rect x="16" y="16" width="224" height="224" rx="44" fill="url(#bg)"/>
  <rect x="34" y="34" width="188" height="188" rx="30" fill="#0B1220"/>

  <g opacity="0.95">
    <rect x="52" y="52" width="38" height="38" fill="#F0D9B5"/>
    <rect x="90" y="52" width="38" height="38" fill="#B58863"/>
    <rect x="128" y="52" width="38" height="38" fill="#F0D9B5"/>
    <rect x="166" y="52" width="38" height="38" fill="#B58863"/>
    <rect x="52" y="90" width="38" height="38" fill="#B58863"/>
    <rect x="90" y="90" width="38" height="38" fill="#F0D9B5"/>
    <rect x="128" y="90" width="38" height="38" fill="#B58863"/>
    <rect x="166" y="90" width="38" height="38" fill="#F0D9B5"/>
  </g>

  <path d="M120 62H136V74H148V90H136V102H120V90H108V74H120V62Z" fill="url(#piece)"/>
  <path d="M100 114H156V130H146V146C146 160 138 172 128 180C118 172 110 160 110 146V130H100V114Z" fill="url(#piece)"/>
  <rect x="94" y="186" width="68" height="16" rx="6" fill="url(#piece)"/>

  <rect x="34" y="34" width="188" height="188" rx="30" stroke="#374151" stroke-width="6"/>
</svg>
